<svg xmlns="http://www.w3.org/2000/svg" width="128" height="128" viewBox="0 0 128 128" version="1.1">
	<path d="M 0 64.007 L 0 128.015 64.250 127.757 L 128.500 127.500 128.757 63.750 L 129.015 0 64.507 0 L 0 0 0 64.007 M 0.471 64.500 C 0.471 99.700, 0.597 113.955, 0.750 96.178 C 0.903 78.400, 0.903 49.600, 0.749 32.178 C 0.596 14.755, 0.471 29.300, 0.471 64.500 M 31.049 26.750 C 31.076 27.163, 36.385 43.700, 42.847 63.500 L 54.595 99.500 64.221 99.785 L 73.846 100.071 85.448 64.552 C 91.829 45.016, 97.312 28.350, 97.632 27.516 C 98.127 26.228, 96.805 26, 88.827 26 L 79.440 26 72.091 51.250 C 68.049 65.138, 64.642 76.621, 64.519 76.769 C 64.396 76.916, 61.015 65.554, 57.005 51.519 L 49.715 26 40.357 26 C 35.211 26, 31.022 26.337, 31.049 26.750" stroke="none" fill="black" fill-rule="evenodd"/>
</svg>