<svg xmlns="http://www.w3.org/2000/svg" width="256" height="256" viewBox="0 0 256 256" version="1.1">
	<path d="M 81 87.499 C 66.547 90.722, 54.896 95.749, 41 104.755 C 16.456 120.663, 3.497 137.006, 3.502 152.047 C 3.505 160.289, 5.383 163.370, 12.344 166.557 C 19.101 169.650, 27.115 170.523, 35.630 169.093 C 44.794 167.554, 48 166.194, 48 163.847 C 48 161.043, 45.634 160.596, 40.340 162.400 C 33.825 164.620, 20.577 164.537, 16.014 162.248 C 14.097 161.287, 11.937 159.375, 11.216 158 C 7.975 151.826, 12.773 136.939, 20.975 127.716 C 32.048 115.266, 61.215 97.930, 79.500 92.931 C 89.441 90.213, 101.125 89.942, 105.689 92.324 C 114.364 96.851, 114.217 103.206, 104.399 148 C 99.231 171.582, 93.289 194.711, 88.360 210.440 C 86.475 216.457, 85.158 221.970, 85.435 222.690 C 86.247 224.806, 90.897 224.194, 93.457 221.634 C 94.758 220.333, 96.828 217.296, 98.058 214.884 C 99.287 212.473, 103.449 205.775, 107.307 200 C 139.561 151.712, 183.229 105.106, 206.727 93.891 C 214.219 90.316, 218.858 90.297, 220.611 93.834 C 222.519 97.682, 223.721 98.476, 225.458 97.035 C 227.855 95.045, 227.308 91.389, 224.250 88.967 C 221.853 87.068, 220.585 86.846, 214.370 87.236 C 206.310 87.743, 198.542 91.388, 187.628 99.786 C 168.074 114.833, 136.083 149.392, 110.302 183.318 C 104.527 190.918, 99.618 196.952, 99.394 196.727 C 99.169 196.502, 101.209 187.134, 103.926 175.909 C 113.874 134.816, 118.398 110.588, 117.819 101.498 C 117.359 94.279, 115.899 92.034, 109.500 88.708 C 104.334 86.024, 90.286 85.427, 81 87.499 M 177.781 132.052 C 171.376 135.434, 170.094 140, 175.550 140 C 181.689 140, 187 136.088, 187 131.566 C 187 129.372, 182.397 129.614, 177.781 132.052 M 215.763 152.514 C 206.256 156.006, 195.267 166.754, 186.938 180.705 C 180.357 191.730, 168.267 206.850, 163.256 210.322 C 158.425 213.670, 153.857 214.598, 150.021 213.009 C 141.082 209.306, 146.061 189.861, 160.897 170.540 C 166.177 163.664, 166.816 162.387, 165.589 161.161 C 162.683 158.254, 159.215 160.599, 153.581 169.280 C 143.818 184.322, 139.825 194.337, 139.734 204.006 C 139.626 215.465, 147.844 221.200, 159.748 217.973 C 163.616 216.924, 166.019 215.142, 172.670 208.390 L 180.840 200.095 181.495 203.970 C 182.428 209.494, 187.089 216.340, 191.266 218.322 C 196.775 220.936, 207.266 220.555, 213.825 217.502 C 220.866 214.224, 230.591 204.738, 237.998 193.924 C 244.315 184.700, 245.243 182, 242.094 182 C 240.825 182, 237.835 185.297, 233.136 191.879 C 221.712 207.879, 211.971 214.970, 201.385 214.990 C 192.590 215.007, 188 209.367, 188 198.543 C 188 191.536, 190.585 184.734, 196.274 176.775 C 206.594 162.334, 219.664 153.609, 225.941 156.969 C 229.099 158.659, 228.703 165.093, 225.041 171.581 C 222.415 176.234, 222.256 176.967, 223.625 178.104 C 225.702 179.828, 227.894 178.376, 230.718 173.404 C 239.346 158.215, 231.204 146.842, 215.763 152.514" stroke="none" fill="black" fill-rule="evenodd"/>
</svg>